<?xml version="1.0" encoding="UTF-8" standalone="no"?>
<svg
   height="16"
   viewBox="0 0 16 16"
   width="16"
   version="1.1"
   id="svg1"
   xmlns="http://www.w3.org/2000/svg"
   xmlns:svg="http://www.w3.org/2000/svg">
  <defs
     id="defs1" />
  <path
     id="path1"
     d="M 6 3 A 1 1 0 0 0 5.2929688 3.2929688 L 1.2929688 7.2929688 A 1 1 0 0 0 1.2929688 8.7070312 L 5.2929688 12.707031 A 1 1 0 0 0 6 13 L 14 13 A 1 1 0 0 0 15 12 L 15 4 A 1 1 0 0 0 14 3 L 6 3 z M 8 4 L 9 4 L 9 8 L 8 8 L 8 4 z M 11 4 L 12 4 L 12 8 L 11 8 L 11 4 z M 5 7 A 1 1 0 0 1 5 9 A 1 1 0 0 1 5 7 z M 7 9 L 13 9 A 3 3 0 0 1 11.5 11.597656 A 3 3 0 0 1 8.5 11.597656 A 3 3 0 0 1 7 9 z "
     style="fill:#8eef97;fill-opacity:1" />
</svg>
